<svg width="26px" height="22px" viewBox="0 0 26 22" version="1.1" xmlns="http://www.w3.org/2000/svg" xmlns:xlink="http://www.w3.org/1999/xlink" preserveAspectRatio="none meet" style="position: absolute; width: 554.793px; height: 465.752px; opacity: 1;" class="animated"><title>Fill20</title><desc>CreatedwithSketch.</desc><defs></defs><g id="Page-1" stroke="none" stroke-width="1" fill="none" fill-rule="evenodd" class="noColor"><g id="76" transform="translate(-362.000000, -130.000000)" fill="#ffffff" class="color0-fill"><path d="M375.000854,134.194282 C373.946915,131.727057 371.56744,130 368.793378,130 L368.793378,130 C365.042244,130 362,133.144843 362,137.022903 L362,137.022903 C362,139.205181 362.982196,141.128574 364.488798,142.416048 L364.488798,142.416048 L364.44097,142.416048 L375.000854,152 L385.557322,142.416048 L385.511202,142.416048 C387.019513,141.128574 388,139.205181 388,137.022903 L388,137.022903 C388,133.144843 384.959464,130 381.208331,130 L381.208331,130 C378.430852,130 376.053085,131.727057 375.000854,134.194282" id="Fill-20"></path></g></g></svg>